<svg id="Layer_1" data-name="Layer 1" xmlns="http://www.w3.org/2000/svg" viewBox="0 0 500 128.22"><defs><style>.cls-2{fill:#80d2f2}</style></defs><path d="m111.2 66-48.77 46.83L48.5 98.89l25.91-23.34H0V56.44h73.93l.13-.31-25.54-23 13.94-13.91z" style="fill:#face00"/><path class="cls-2" d="M318 125.54h-17.88c.44-2.63.88-5.19 1.35-8-1.72 1.48-3.17 2.87-4.75 4.07a32.3 32.3 0 0 1-16.83 6.29 36 36 0 0 1-16.6-1.86c-9.7-3.69-15.15-12.06-14.87-22.47a27.22 27.22 0 0 1 4.14-14.65 28.14 28.14 0 0 1 10.28-9c6.62-3.66 13.83-5.65 21.07-7.61 5.77-1.56 11.46-3.4 17.13-5.29a16.86 16.86 0 0 0 4.68-2.65 7.65 7.65 0 0 0-.87-13c-2.93-1.7-6.17-2-9.47-2a24 24 0 0 0-22.73 16.33c-.09.24-.2.46-.35.81l-18.87-5.65c.19-.57.32-1.08.51-1.57 5.37-14 15.62-22.55 30-26.12a48.18 48.18 0 0 1 28.24 1.21 24.78 24.78 0 0 1 14.69 12.77 24.49 24.49 0 0 1 2.34 14.55c-1.57 10.33-3.46 20.62-5.27 30.92-1.85 10.54-3.77 21.07-5.66 31.61-.1.41-.2.77-.28 1.31zm-11.72-46.47a2.31 2.31 0 0 0-.55.26 26.29 26.29 0 0 1-10.18 6c-4.65 1.63-9.41 3-14.08 4.55-3.74 1.27-7.4 2.76-10.31 5.56a8.61 8.61 0 0 0-2.58 9c.93 3.42 3.53 4.83 6.74 5.34a27 27 0 0 0 20.27-4.71c3.89-2.68 6.81-6.09 7.77-10.86.73-3.56 1.38-7.14 2.06-10.71.28-1.37.58-2.82.86-4.43zM373.28 34.48c-.42 2.59-.85 5.21-1.33 8.13.46-.38.69-.54.88-.73a35.28 35.28 0 0 1 25.49-10.08 30.74 30.74 0 0 1 16.13 4.05c7.49 4.51 11.67 11.19 12.85 19.81.77 5.57-.14 11-1.12 16.46-1.95 10.74-3.8 21.49-5.68 32.25q-1.78 10.13-3.55 20.26c-.1.58-.25 1-1 1h-19.64a2.78 2.78 0 0 1-.52-.12c.29-1.71.57-3.43.87-5.14q3.36-19 6.73-38c.9-5.1 1.82-10.21 2.59-15.33a15.59 15.59 0 0 0-.9-8.16c-1.77-4.48-5.38-6.66-9.92-7.28-8.64-1.17-16.1 1.21-22 7.86a25.74 25.74 0 0 0-5.79 13q-3 17.37-6.05 34.74-1.53 8.77-3 17.55c-.11.66-.31.94-1 .94h-19.65a3.48 3.48 0 0 1-.49-.1c.45-2.59.89-5.17 1.34-7.74L344 86.86q2.71-15.45 5.44-30.89 1.82-10.32 3.61-20.64c.1-.59.17-1 .95-1h19a1.32 1.32 0 0 1 .28.15zM198.38 59.13l-19.09 4.59c-.8-1.95-1.46-3.89-2.38-5.7-2.64-5.18-7.06-7.72-12.75-8.36a20.5 20.5 0 0 0-9.89 1 10.88 10.88 0 0 0-5.44 4.09 5.63 5.63 0 0 0 .81 7.64 20 20 0 0 0 5 3.32c5.15 2.32 10.39 4.43 15.6 6.59a71.91 71.91 0 0 1 16 8.79c13.1 9.88 13 28.78-.31 38.85a39.2 39.2 0 0 1-17.17 7.31 53.85 53.85 0 0 1-26-1.46c-13.65-4.35-21.66-13.84-24.72-27.68-.18-.81-.3-1.63-.47-2.53l19-4.8c.37 1.36.68 2.65 1.07 3.91 1.39 4.51 3.41 8.64 7.26 11.63a19.25 19.25 0 0 0 10 3.79c4.32.47 8.66.52 12.76-1.14a16.07 16.07 0 0 0 4.77-2.92 7.66 7.66 0 0 0-.43-11.83 28.26 28.26 0 0 0-6-3.51c-5.68-2.47-11.47-4.67-17.16-7.1a56 56 0 0 1-14.44-8.53c-9.16-7.73-9.7-19.76-4-28.6 4.35-6.8 10.76-10.86 18.37-13 11.19-3.08 22.2-2.49 32.58 3a32.13 32.13 0 0 1 17.03 22.65zM496.73 53.1h-22.56c-.53 3-1 5.83-1.55 8.7q-2.83 16-5.67 32.12a48 48 0 0 0-.84 6.08c-.16 3.55 1.28 5.09 4.87 5.25s7.3.15 10.95.21h1.69c-1.16 6.78-2.29 13.43-3.44 20.15-7.82-.17-15.56.59-23.07-2a18.17 18.17 0 0 1-12.72-17.18c-.18-4.75.85-9.32 1.66-13.92Q449 76 452 59.47c.36-2 .73-4.1 1.13-6.35h-16.7c1.05-6.34 2.06-12.47 3.09-18.75h16.88l4-22.13h21c-1.32 7.38-2.62 14.68-3.94 22.12H500c-1.1 6.29-2.18 12.46-3.27 18.74zM205.67 125.43q11-62.73 22-125.43h20.83c-.38 2.23-.75 4.44-1.13 6.65q-2.71 15.63-5.45 31.27l-5.67 32.5-5.4 31c-1.34 7.74-2.68 15.49-4.07 23.23-.06.35-.56.88-.87.89h-19.89a2.16 2.16 0 0 1-.35-.11z"/></svg>